<svg width="24" height="26" viewBox="0 0 24 26" fill="none" xmlns="http://www.w3.org/2000/svg">
<path fill-rule="evenodd" clip-rule="evenodd" d="M5.77631 3.27624C5.77631 1.48132 7.23138 0.0262451 9.02631 0.0262451H14.0263C15.8212 0.0262451 17.2763 1.48132 17.2763 3.27624V4.7762H21.7762C22.4666 4.7762 23.0262 5.33584 23.0262 6.0262C23.0262 6.71655 22.4666 7.2762 21.7762 7.2762H21.2763V22.2766C21.2763 24.0715 19.8212 25.5266 18.0263 25.5266H6.02631C4.23138 25.5266 2.77631 24.0715 2.77631 22.2766V7.2762H1.27624C0.585889 7.2762 0.0262451 6.71655 0.0262451 6.0262C0.0262451 5.33584 0.585889 4.7762 1.27624 4.7762H5.77631V3.27624ZM14.7763 3.27624V4.7762H8.27631V3.27624C8.27631 2.86203 8.61209 2.52624 9.02631 2.52624H14.0263C14.4405 2.52624 14.7763 2.86203 14.7763 3.27624ZM5.27631 22.2766V7.52659H18.7763V22.2766C18.7763 22.6908 18.4405 23.0266 18.0263 23.0266H6.02631C5.61209 23.0266 5.27631 22.6908 5.27631 22.2766ZM14.2764 10.2763C14.9667 10.2763 15.5264 10.8359 15.5264 11.5263V20.0263C15.5264 20.7166 14.9667 21.2763 14.2764 21.2763C13.586 21.2763 13.0264 20.7166 13.0264 20.0263V11.5263C13.0264 10.8359 13.586 10.2763 14.2764 10.2763ZM10.5263 14.5266C10.5263 13.8362 9.96666 13.2766 9.27631 13.2766C8.58595 13.2766 8.02631 13.8362 8.02631 14.5266V20.0266C8.02631 20.7169 8.58595 21.2766 9.27631 21.2766C9.96666 21.2766 10.5263 20.7169 10.5263 20.0266V14.5266Z" fill="white"/>
</svg>
